<svg width="18" height="18" viewBox="0 0 18 18" fill="none" xmlns="http://www.w3.org/2000/svg">
<path d="M4.27875 2.7825L3.22125 1.7175C0.75 4.17225 0.75 5.95125 0.75 8.25H1.5L2.25 8.20275C2.25 6.00675 2.25 4.797 4.27875 2.7825ZM14.778 1.7175L13.722 2.7825C15.75 4.797 15.75 6.00675 15.75 8.25L17.25 8.20275C17.25 5.95125 17.25 4.17225 14.778 1.7175ZM9 16.5C9.46447 16.5006 9.91759 16.3564 10.2964 16.0876C10.6751 15.8188 10.9608 15.4386 11.1135 15H6.8865C7.03925 15.4386 7.32486 15.8188 7.70363 16.0876C8.08241 16.3564 8.53553 16.5006 9 16.5ZM14.25 10.9395V7.5C14.25 5.08725 12.6112 3.05475 10.3912 2.4435C10.1715 1.89 9.6345 1.5 9 1.5C8.3655 1.5 7.8285 1.89 7.60875 2.4435C5.388 3.05475 3.75 5.08725 3.75 7.5V10.9395L2.46975 12.2197C2.39997 12.2893 2.34463 12.3719 2.30691 12.4629C2.2692 12.5539 2.24986 12.6515 2.25 12.75V13.5C2.25 13.6989 2.32902 13.8897 2.46967 14.0303C2.61032 14.171 2.80109 14.25 3 14.25H15C15.1989 14.25 15.3897 14.171 15.5303 14.0303C15.671 13.8897 15.75 13.6989 15.75 13.5V12.75C15.7501 12.6515 15.7308 12.5539 15.6931 12.4629C15.6554 12.3719 15.6 12.2893 15.5303 12.2197L14.25 10.9395Z" fill="#335466"/>
</svg>
